<svg data-logo="logo" xmlns="http://www.w3.org/2000/svg" viewBox="0 0 216 35">
                <g style="opacity: 1;" id="logogram" transform="translate(0, 0.5)"><path d="M16.0573 0H37.1389L21.6397 22.9729H0.558105L16.0573 0Z" fill="#1613C4"></path><path d="M16.9805 25.102L10.9773 34H33.0589L48.5581 11.0271H32.2605L22.7645 25.102H16.9805Z" fill="#1613C4"></path></g>
                <g style="opacity: 1;" id="logotype" transform="translate(55, 0)"><path fill="#1613c4" d="M13.27 35L8.24 35L8.24 10.26L16.01 10.26L20.03 21.62Q20.28 22.42 20.60 23.68Q20.92 24.94 21.26 26.40Q21.59 27.86 21.88 29.24Q22.17 30.62 22.35 31.63L22.35 31.63L21.37 31.63Q21.56 30.63 21.85 29.26Q22.14 27.89 22.47 26.43Q22.80 24.97 23.12 23.69Q23.45 22.42 23.70 21.62L23.70 21.62L27.65 10.26L35.45 10.26L35.45 35L30.35 35L30.35 23.33Q30.35 22.53 30.39 21.32Q30.42 20.11 30.45 18.71Q30.49 17.30 30.52 15.88Q30.55 14.46 30.57 13.20L30.57 13.20L30.89 13.20Q30.57 14.58 30.19 16.05Q29.81 17.52 29.42 18.90Q29.03 20.27 28.68 21.43Q28.33 22.58 28.08 23.33L28.08 23.33L23.98 35L19.71 35L15.55 23.33Q15.30 22.58 14.95 21.44Q14.60 20.31 14.21 18.93Q13.82 17.55 13.42 16.08Q13.02 14.61 12.66 13.20L12.66 13.20L13.06 13.20Q13.07 14.40 13.11 15.81Q13.14 17.22 13.18 18.64Q13.22 20.06 13.25 21.28Q13.27 22.50 13.27 23.33L13.27 23.33L13.27 35ZM45.89 35.37L45.89 35.37Q43.10 35.37 41.06 34.16Q39.02 32.96 37.91 30.81Q36.81 28.66 36.81 25.80L36.81 25.80Q36.81 22.91 37.91 20.76Q39.02 18.61 41.06 17.41Q43.10 16.21 45.89 16.21L45.89 16.21Q48.70 16.21 50.73 17.41Q52.76 18.61 53.87 20.76Q54.97 22.91 54.97 25.80L54.97 25.80Q54.97 28.66 53.87 30.81Q52.76 32.96 50.73 34.16Q48.70 35.37 45.89 35.37ZM45.89 31.45L45.89 31.45Q47.22 31.45 48.12 30.71Q49.01 29.97 49.46 28.68Q49.91 27.40 49.91 25.79L49.91 25.79Q49.91 24.14 49.46 22.86Q49.01 21.59 48.12 20.86Q47.22 20.13 45.89 20.13L45.89 20.13Q44.56 20.13 43.68 20.86Q42.79 21.59 42.34 22.86Q41.89 24.14 41.89 25.79L41.89 25.79Q41.89 27.40 42.34 28.68Q42.79 29.97 43.68 30.71Q44.56 31.45 45.89 31.45ZM64.53 35.37L64.53 35.37Q61.73 35.37 59.69 34.16Q57.66 32.96 56.56 30.81Q55.45 28.66 55.45 25.80L55.45 25.80Q55.45 22.91 56.56 20.76Q57.66 18.61 59.69 17.41Q61.73 16.21 64.53 16.21L64.53 16.21Q66.18 16.21 67.57 16.64Q68.97 17.07 70.04 17.87Q71.12 18.66 71.82 19.81Q72.52 20.96 72.78 22.38L72.78 22.38L68.15 23.25Q68.00 22.52 67.69 21.94Q67.37 21.37 66.92 20.96Q66.48 20.56 65.89 20.34Q65.30 20.13 64.58 20.13L64.58 20.13Q63.25 20.13 62.35 20.84Q61.45 21.55 60.99 22.83Q60.53 24.11 60.53 25.79L60.53 25.79Q60.53 27.45 60.99 28.72Q61.45 29.99 62.35 30.72Q63.25 31.45 64.58 31.45L64.58 31.45Q65.30 31.45 65.89 31.22Q66.49 31.00 66.96 30.58Q67.42 30.15 67.74 29.55Q68.05 28.96 68.19 28.21L68.19 28.21L72.82 29.06Q72.55 30.53 71.85 31.69Q71.16 32.84 70.08 33.67Q69.00 34.50 67.60 34.93Q66.19 35.37 64.53 35.37ZM81.93 25.75L78.54 29.57L78.54 23.58L79.29 23.58L85.37 16.44L91.13 16.44L83.11 25.75L81.93 25.75ZM79.01 35L74.03 35L74.03 10.26L79.01 10.26L79.01 35ZM91.48 35L85.62 35L80.04 26.87L83.37 23.33L91.48 35ZM96.84 35L91.66 35L91.66 10.26L97.30 10.26L105.12 22.78Q105.72 23.74 106.33 24.87Q106.95 26.00 107.59 27.38Q108.22 28.76 108.86 30.48L108.86 30.48L108.34 30.48Q108.22 29.11 108.13 27.55Q108.04 25.99 107.98 24.56Q107.91 23.13 107.91 22.13L107.91 22.13L107.91 10.26L113.09 10.26L113.09 35L107.43 35L100.32 23.64Q99.54 22.37 98.88 21.16Q98.21 19.96 97.49 18.50Q96.77 17.04 95.77 15.03L95.77 15.03L96.42 15.03Q96.52 16.82 96.62 18.46Q96.72 20.11 96.78 21.44Q96.84 22.78 96.84 23.63L96.84 23.63L96.84 35ZM123.63 35.37L123.63 35.37Q120.79 35.37 118.73 34.20Q116.67 33.04 115.57 30.90Q114.46 28.76 114.46 25.82L114.46 25.82Q114.46 22.95 115.56 20.79Q116.66 18.63 118.66 17.42Q120.67 16.21 123.38 16.21L123.38 16.21Q125.21 16.21 126.78 16.79Q128.36 17.37 129.56 18.54Q130.75 19.71 131.42 21.47Q132.10 23.23 132.10 25.62L132.10 25.62L132.10 27.01L116.51 27.01L116.51 23.89L129.66 23.89L127.33 24.72Q127.33 23.28 126.89 22.21Q126.45 21.14 125.58 20.55Q124.71 19.96 123.41 19.96L123.41 19.96Q122.13 19.96 121.23 20.56Q120.33 21.15 119.86 22.18Q119.40 23.20 119.40 24.51L119.40 24.51L119.40 26.72Q119.40 28.33 119.93 29.42Q120.47 30.52 121.45 31.07Q122.42 31.61 123.71 31.61L123.71 31.61Q124.59 31.61 125.31 31.36Q126.02 31.12 126.53 30.63Q127.03 30.14 127.30 29.42L127.30 29.42L131.81 30.27Q131.37 31.80 130.25 32.95Q129.14 34.10 127.47 34.73Q125.80 35.37 123.63 35.37ZM140.66 35.37L140.66 35.37Q138.42 35.37 136.69 34.73Q134.97 34.09 133.87 32.87Q132.77 31.65 132.46 29.92L132.46 29.92L137.09 29.12Q137.46 30.42 138.37 31.07Q139.28 31.71 140.81 31.71L140.81 31.71Q142.22 31.71 143.05 31.17Q143.88 30.63 143.88 29.80L143.88 29.80Q143.88 29.07 143.29 28.61Q142.70 28.14 141.49 27.89L141.49 27.89L138.29 27.23Q135.60 26.68 134.27 25.36Q132.94 24.04 132.94 21.97L132.94 21.97Q132.94 20.17 133.92 18.89Q134.90 17.60 136.64 16.90Q138.39 16.21 140.74 16.21L140.74 16.21Q142.93 16.21 144.54 16.81Q146.16 17.42 147.15 18.53Q148.15 19.64 148.48 21.15L148.48 21.15L144.06 21.93Q143.78 20.99 142.98 20.38Q142.17 19.78 140.81 19.78L140.81 19.78Q139.58 19.78 138.75 20.29Q137.92 20.81 137.92 21.65L137.92 21.65Q137.92 22.37 138.46 22.85Q139.00 23.33 140.31 23.59L140.31 23.59L143.65 24.26Q146.34 24.81 147.65 26.04Q148.96 27.28 148.96 29.27L148.96 29.27Q148.96 31.10 147.90 32.47Q146.84 33.84 144.97 34.60Q143.10 35.37 140.66 35.37ZM148.33 16.44L159.33 16.44L159.33 20.24L148.33 20.24L148.33 16.44ZM150.88 30.00L150.88 12.02L155.86 12.02L155.86 29.57Q155.86 30.45 156.26 30.87Q156.65 31.30 157.56 31.30L157.56 31.30Q157.84 31.30 158.36 31.22Q158.87 31.15 159.14 31.08L159.14 31.08L159.85 34.82Q159.02 35.07 158.20 35.17Q157.38 35.27 156.63 35.27L156.63 35.27Q153.84 35.27 152.36 33.90Q150.88 32.54 150.88 30.00L150.88 30.00Z"></path></g>
                
            </svg>